<svg width="608" height="560" viewBox="0 0 608 560" fill="none" xmlns="http://www.w3.org/2000/svg">
<g filter="url(#filter0_d_3_207)">
<path d="M205.504 40.2984C207.272 39.2879 209.174 38.5077 211.158 37.9784L212.314 32.654L221.75 32.4916L223.112 37.7812C225.112 38.2517 227.038 38.9733 228.839 39.9272L233.606 36.946L240.403 43.21L237.448 47.85C238.508 49.5321 239.326 51.3424 239.88 53.2324L245.462 54.3344L245.632 63.336L240.087 64.6236C239.596 66.5323 238.839 68.3698 237.837 70.0872L240.963 74.646L234.396 81.1188L229.532 78.3C227.769 79.311 225.871 80.0913 223.89 80.62L222.674 85.9444L213.238 86.1068L211.876 80.8172C209.88 80.3466 207.958 79.625 206.161 78.6712L201.382 81.6524L194.56 75.4L197.515 70.76C196.456 69.0735 195.638 67.2594 195.083 65.366L189.501 64.206L189.331 55.2044L194.876 53.9052C195.369 51.9971 196.126 50.1598 197.126 48.4416L194.001 43.8828L200.64 37.4796L205.504 40.2984ZM210.538 52.2928C209.146 53.667 208.212 55.4041 207.855 57.2845C207.498 59.1649 207.733 61.1041 208.531 62.857C209.329 64.6098 210.654 66.0976 212.339 67.1321C214.023 68.1667 215.991 68.7015 217.994 68.6691C219.997 68.6366 221.945 68.0384 223.592 66.9499C225.238 65.8614 226.509 64.3316 227.245 62.5539C227.98 60.7762 228.146 58.8305 227.722 56.9627C227.298 55.095 226.303 53.3891 224.863 52.0608C223.905 51.173 222.772 50.4746 221.53 50.0056C220.288 49.5366 218.961 49.3063 217.626 49.3278C216.29 49.3494 214.972 49.6224 213.748 50.1312C212.523 50.64 211.416 51.3746 210.49 52.2928H210.538Z" fill="#E0E0E0"/>
<path d="M207.693 339.045C208.711 338.459 209.807 338.007 210.952 337.699L211.62 334.625L217.068 334.532L217.846 337.583C219.002 337.85 220.114 338.263 221.154 338.813L223.902 337.096L227.818 340.704L226.176 343.36C226.79 344.331 227.264 345.377 227.587 346.469L230.809 347.107L230.906 352.304L227.708 353.046C227.429 354.148 226.995 355.209 226.419 356.201L228.219 358.823L224.437 362.558L221.628 360.934C220.608 361.518 219.512 361.975 218.369 362.291L217.664 365.4L212.216 365.493L211.438 362.442C210.283 362.176 209.17 361.762 208.131 361.212L205.382 362.929L201.467 359.322L203.169 356.642C202.557 355.669 202.078 354.624 201.747 353.533L198.536 352.895L198.439 347.698L201.637 346.956C201.916 345.854 202.35 344.793 202.926 343.801L201.126 341.179L204.908 337.444L207.717 339.068L207.693 339.045ZM210.599 346.005C209.794 346.798 209.253 347.802 209.046 348.888C208.839 349.975 208.974 351.095 209.435 352.108C209.896 353.121 210.662 353.981 211.635 354.579C212.609 355.176 213.746 355.485 214.904 355.465C216.061 355.446 217.187 355.099 218.137 354.469C219.088 353.839 219.822 352.954 220.245 351.926C220.668 350.898 220.762 349.773 220.515 348.695C220.267 347.616 219.69 346.631 218.856 345.866C218.307 345.354 217.659 344.951 216.947 344.679C216.235 344.407 215.474 344.271 214.707 344.28C213.94 344.289 213.183 344.441 212.478 344.729C211.773 345.017 211.135 345.435 210.599 345.958V346.005Z" fill="#E0E0E0"/>
<path d="M89.1085 68.9388C89.8042 68.5374 90.5524 68.2254 91.3337 68.0108L91.7958 65.9112H95.5046L96.064 67.9296C96.852 68.1206 97.6119 68.4051 98.3257 68.7764L100.198 67.6164L102.874 70.0756L101.658 71.9084C102.078 72.5721 102.405 73.2859 102.63 74.0312L104.831 74.472V77.952L102.643 78.4624C102.452 79.2154 102.158 79.9409 101.767 80.62L102.983 82.4064L100.405 84.9584L98.4838 83.7984C97.7881 84.1998 97.0399 84.5118 96.2585 84.7264L95.7965 86.826H92.1485L91.6134 84.738C90.8241 84.5564 90.0635 84.2755 89.3517 83.9028L87.479 85.0628L84.8038 82.592L86.0198 80.7708C85.5991 80.1071 85.272 79.3933 85.047 78.648L82.8461 78.2072L82.7853 74.7272L84.9619 74.2168C85.1621 73.465 85.4603 72.7402 85.8496 72.0592L84.6336 70.2728L87.2115 67.7208L89.1328 68.8808L89.1085 68.9388ZM91.0905 73.66C90.5428 74.2013 90.1756 74.8854 90.0353 75.6258C89.8951 76.3662 89.9881 77.1296 90.3026 77.8196C90.6171 78.5096 91.139 79.0951 91.8022 79.5022C92.4655 79.9092 93.2404 80.1196 94.029 80.1066C94.8176 80.0937 95.5844 79.8579 96.2326 79.4293C96.8808 79.0007 97.3812 78.3983 97.6706 77.6984C97.9599 76.9985 98.0253 76.2325 97.8584 75.4971C97.6915 74.7618 97.2998 74.0902 96.7328 73.5672C96.356 73.2197 95.9112 72.9464 95.4237 72.7629C94.9361 72.5795 94.4155 72.4895 93.8915 72.4982C93.3675 72.5068 92.8504 72.6138 92.3698 72.8132C91.8892 73.0125 91.4545 73.3003 91.0905 73.66Z" fill="#E0E0E0"/>
<path d="M270.633 61.48C272.005 60.6892 273.481 60.0767 275.023 59.6588L275.923 55.5176L283.219 55.39L284.276 59.508C285.836 59.8717 287.337 60.4335 288.739 61.1784L292.387 58.8584L297.774 63.8L295.488 67.3728C296.32 68.6841 296.962 70.0966 297.397 71.572L301.75 72.4304L301.872 79.3904L297.567 80.3996C297.176 81.8947 296.579 83.3339 295.792 84.68L298.224 88.2296L293.129 93.264L289.335 91.0716C287.962 91.86 286.486 92.4723 284.945 92.8928L284.033 97.034L276.737 97.1616L275.679 93.0436C274.104 92.6885 272.586 92.1305 271.168 91.3848L267.52 93.7048L262.23 88.8444L264.529 85.2252C263.701 83.9118 263.059 82.4998 262.62 81.026L258.278 80.1676L258.145 73.2076L262.461 72.1984C262.843 70.7146 263.432 69.2866 264.212 67.9528L261.78 64.4032L266.876 59.3688L270.633 61.48ZM274.548 70.76C273.467 71.8304 272.742 73.1828 272.466 74.6462C272.19 76.1096 272.375 77.6181 272.998 78.9811C273.621 80.3441 274.654 81.5002 275.965 82.3033C277.277 83.1063 278.809 83.5202 280.367 83.4926C281.926 83.465 283.441 82.9972 284.72 82.1483C286 81.2993 286.987 80.1074 287.556 78.7234C288.126 77.3393 288.252 75.8252 287.919 74.3726C287.587 72.92 286.81 71.5942 285.687 70.5628C284.936 69.8828 284.053 69.3508 283.086 68.9973C282.12 68.6438 281.089 68.4756 280.055 68.5026C279.02 68.5295 278.001 68.751 277.056 69.1543C276.111 69.5576 275.259 70.1348 274.548 70.8528V70.76Z" fill="#EBEBEB"/>
<path d="M464.767 234.436C466.526 233.425 468.42 232.645 470.397 232.116L471.613 226.792L481.037 226.629L482.399 231.919C484.401 232.384 486.328 233.106 488.127 234.065L492.881 231.084L499.667 237.336L496.724 241.976C497.777 243.661 498.594 245.471 499.156 247.358L504.737 248.518L504.908 257.508L499.363 258.808C498.875 260.714 498.118 262.548 497.113 264.26L500.238 268.807L493.696 275.21L488.832 272.391C487.068 273.401 485.17 274.181 483.19 274.711L481.974 280.036L472.55 280.186L471.188 274.92C469.191 274.449 467.27 273.728 465.473 272.774L460.706 275.755L453.921 269.503L456.876 264.863C455.816 263.185 454.998 261.378 454.444 259.492L448.862 258.332L448.704 249.4L454.237 248.101C454.73 246.193 455.486 244.355 456.486 242.637L453.361 238.102L459.916 231.629L464.78 234.448L464.767 234.436ZM469.789 246.419C468.401 247.793 467.471 249.529 467.116 251.407C466.762 253.285 466.999 255.221 467.798 256.971C468.597 258.721 469.921 260.205 471.604 261.237C473.287 262.268 475.253 262.801 477.254 262.767C479.254 262.733 481.199 262.134 482.842 261.045C484.486 259.957 485.754 258.429 486.487 256.653C487.22 254.877 487.384 252.934 486.96 251.069C486.535 249.204 485.541 247.501 484.102 246.175C483.146 245.293 482.018 244.599 480.781 244.133C479.543 243.668 478.222 243.44 476.893 243.463C475.563 243.485 474.251 243.758 473.032 244.265C471.813 244.773 470.711 245.504 469.789 246.419Z" fill="#E0E0E0"/>
<path d="M531.392 59.4152C531.399 55.6684 530.5 51.9705 528.765 48.6091C527.03 45.2477 524.505 42.3135 521.388 40.0346C518.27 37.7556 514.643 36.1935 510.79 35.4696C506.936 34.7457 502.959 34.8796 499.169 35.8608C495.378 36.842 491.876 38.6442 488.934 41.1271C485.993 43.61 483.691 46.7067 482.209 50.1764C480.726 53.6461 480.103 57.3952 480.387 61.1322C480.671 64.8692 481.855 68.4934 483.846 71.7228L483.919 71.8156C484.892 73.3932 486.12 74.5184 487.361 76.1656L502.208 94.9112C502.639 95.4432 503.191 95.874 503.824 96.1704C504.456 96.4668 505.151 96.621 505.856 96.621C506.561 96.621 507.256 96.4668 507.888 96.1704C508.521 95.874 509.073 95.4432 509.504 94.9112L524.096 76.4788C525.422 74.9991 526.66 73.45 527.805 71.8388L527.866 71.7692C530.181 68.0275 531.399 63.7604 531.392 59.4152ZM505.856 70.0176C503.634 70.0153 501.463 69.3847 499.617 68.2056C497.771 67.0264 496.333 65.3516 495.484 63.3929C494.636 61.4342 494.415 59.2794 494.85 57.201C495.285 55.1226 496.356 53.2139 497.928 51.716C499.499 50.2182 501.501 49.1985 503.681 48.7859C505.86 48.3733 508.118 48.5862 510.171 49.3978C512.223 50.2094 513.977 51.5832 515.211 53.3456C516.445 55.1079 517.104 57.1798 517.104 59.2992C517.104 60.7077 516.813 62.1024 516.248 63.4036C515.682 64.7048 514.853 65.8869 513.809 66.8823C512.764 67.8778 511.524 68.6671 510.16 69.205C508.795 69.743 507.333 70.0191 505.856 70.0176Z" fill="#E0E0E0"/>
<path d="M81.8003 410.002C84.3881 408.286 86.3908 405.882 87.5602 403.09C88.7296 400.298 89.0143 397.24 88.3789 394.296C86.713 385.955 78.6509 380.376 70.5158 381.872C62.3808 383.368 57.0182 391.326 58.6841 399.678C59.2282 402.665 60.689 405.431 62.8817 407.626C65.0745 409.821 67.9005 411.347 71.0022 412.009C48.8467 419.526 54.72 443.004 54.72 443.004L108.747 433.214C108.747 433.214 105.099 409.062 81.8003 410.002Z" fill="#EBEBEB"/>
<path d="M147.258 510.087L136.192 507.465C136.192 507.465 133.894 516.374 124.141 514.251C122.256 513.875 120.54 512.948 119.232 511.599C117.925 510.25 117.09 508.545 116.845 506.723C116.615 505.196 116.768 503.639 117.29 502.179C117.812 500.72 118.689 499.399 119.849 498.324C122.5 495.796 127.34 494.067 134.441 497.095L140.63 473.164L129.626 470.577L125.978 484.602C125.978 484.602 109.574 484.776 105.391 500.992C101.378 516.513 115.034 523.543 121.284 525.004C126.075 526.13 142.625 528.856 147.258 510.087Z" fill="#EBEBEB"/>
<path d="M130.759 465.622L141.916 468.244L144.485 458.299L133.327 455.677L130.759 465.622Z" fill="#EBEBEB"/>
<path d="M569.234 546.244C569.234 546.406 450.868 546.546 304.9 546.546C158.931 546.546 40.5536 546.36 40.5536 546.244C40.5536 546.128 158.883 545.942 304.9 545.942C450.917 545.942 569.234 546.07 569.234 546.244Z" fill="black"/>
<path d="M70.528 254.272H95.9302L93.6928 265.141H47.9347L49.7466 256.499L77.289 235.909C84.0986 230.712 86.1779 227.673 86.1779 223.88C86.1779 220.087 83.1501 217.535 77.289 217.535C74.8151 217.57 72.3803 218.129 70.1599 219.17C67.9394 220.211 65.9887 221.708 64.448 223.555L55.0362 217.048C59.9002 210.702 68.935 206.503 79.3562 206.503C92.1363 206.503 100.502 213.011 100.502 221.989C100.502 228.822 97.2314 234.587 86.6035 242.417L70.528 254.272Z" fill="#263238"/>
<path d="M156.451 253.042H146.528L144.023 265.141H130.38L132.97 253.042H100.417L102.229 244.064L137.809 207.489H153.082L119.934 242.162H135.815L138.065 231.374H151.1L148.851 242.162H158.785L156.451 253.042Z" fill="#263238"/>
<path d="M196.335 195.796H208.945L164.573 273.377H152L196.335 195.796Z" fill="#263238"/>
<path d="M253.925 207.489L252.113 216.143L219.828 265.141H204.288L235.272 218.358H215.682L213.688 227.754H201.26L205.504 207.489H253.925Z" fill="#263238"/>
<path d="M42.2803 310.625L45.8189 304.222C48.9727 306.144 52.6314 307.177 56.3738 307.203C59.8272 307.203 61.8214 306.17 61.8214 304.523C61.8214 300.452 46.4026 302.702 46.4026 293.19C46.4026 286.659 52.2515 282.379 61.639 282.379C65.6205 282.253 69.5643 283.15 73.0573 284.977L69.7984 291.334C67.1815 289.797 64.1646 288.994 61.0918 289.014C57.3709 289.014 55.3766 290.313 55.3766 291.96C55.3766 296.113 70.7955 293.735 70.7955 303.073C70.7955 309.558 64.8128 313.838 55.5226 313.838C50.0749 313.861 45.1379 312.481 42.2803 310.625Z" fill="#263238"/>
<path d="M86.7859 289.606L85.7523 294.71H99.8458L98.496 301.101H84.3904L83.2474 306.646H99.8944L98.4352 313.258H72.96L79.3562 283.04H104.199L102.788 289.664L86.7859 289.606Z" fill="#263238"/>
<path d="M127.352 304.175L132.751 313.258H123.363L118.645 305.219H114.122L112.444 313.258H103.469L109.805 283.04H123.363C131.474 283.04 136.143 286.636 136.143 292.691C136.207 295.262 135.38 297.78 133.79 299.856C132.201 301.933 129.938 303.451 127.352 304.175ZM122.099 289.733H117.38L115.52 298.596H120.87C124.822 298.596 127.133 296.786 127.133 293.457C127.084 290.905 125.175 289.733 122.099 289.733Z" fill="#263238"/>
<path d="M175.481 283.04L155.648 313.258H146.808L139.536 283.04H148.741L153.277 302.76L166.239 283.04H175.481Z" fill="#263238"/>
<path d="M177.378 283.04H186.364L179.968 313.258H170.994L177.378 283.04Z" fill="#263238"/>
<path d="M187.763 300.544C187.763 290.035 195.873 282.379 207.656 282.379C213.505 282.379 218.272 284.42 220.534 288.086L214.016 293.016C213.288 291.891 212.255 290.974 211.027 290.362C209.799 289.749 208.42 289.464 207.036 289.536C200.871 289.536 196.785 294.072 196.785 300.034C196.785 304.106 199.692 306.832 204.543 306.832C206.025 306.838 207.489 306.529 208.829 305.927C210.169 305.325 211.351 304.445 212.289 303.352L217.591 308.316C214.016 312.434 209.347 313.942 203.68 313.942C193.976 313.861 187.763 308.456 187.763 300.544Z" fill="#263238"/>
<path d="M233.63 289.606L232.584 294.71H246.678L245.364 301.101H231.222L230.092 306.646H246.726L245.279 313.258H219.853L226.176 283.04H251.019L249.62 289.664L233.63 289.606Z" fill="#263238"/>
<path d="M76.7904 190.426H59.0733C59.0733 166.901 69.0566 142.866 86.4576 124.422C104.771 105.038 128.543 94.366 153.338 94.366C204.008 94.366 239.406 129.653 239.406 180.206H221.725C221.725 138.991 194.256 111.302 153.374 111.302C113.295 111.267 76.7904 148.99 76.7904 190.426Z" fill="#5ED8FF"/>
<path d="M86.5062 185.728C89.3395 185.728 91.6378 185.994 91.6256 186.238C91.6134 186.482 89.3274 186.667 86.5062 186.667C83.6851 186.667 81.3747 186.447 81.3747 186.157C81.3747 185.867 83.6851 185.681 86.5062 185.728Z" fill="#263238"/>
<path d="M98.7392 148.677C101.171 150.162 102.813 151.682 102.545 152.088C102.278 152.494 100.113 151.67 97.6813 150.266C95.2493 148.863 93.632 147.32 93.8874 146.856C94.1427 146.392 96.368 147.204 98.7392 148.677Z" fill="#263238"/>
<path d="M129.382 123.146C130.538 125.616 131.109 127.786 130.598 127.971C130.088 128.157 128.787 126.359 127.546 123.934C126.306 121.51 125.734 119.294 126.33 119.109C126.926 118.923 128.239 120.64 129.382 123.146Z" fill="#263238"/>
<path d="M169.754 120.106C169.048 122.728 168.088 124.746 167.613 124.654C167.139 124.561 167.236 122.334 167.844 119.677C168.452 117.021 169.401 115.037 169.985 115.142C170.568 115.246 170.459 117.496 169.754 120.106Z" fill="#263238"/>
<path d="M202.732 142.216C200.372 143.701 198.244 144.606 197.965 144.234C197.685 143.863 199.327 142.262 201.613 140.673C203.899 139.084 206.039 138.191 206.38 138.655C206.72 139.119 205.091 140.72 202.732 142.216Z" fill="#263238"/>
<path d="M213.59 178.64C210.769 178.64 208.471 178.431 208.471 178.199C208.471 177.967 210.757 177.735 213.59 177.7C216.424 177.666 218.71 177.863 218.722 178.141C218.734 178.42 216.448 178.64 213.59 178.64Z" fill="#263238"/>
<path d="M148.534 183.674C147.652 183.68 146.794 183.398 146.102 182.874L116.323 160.834C115.497 160.219 114.961 159.316 114.834 158.324C114.706 157.332 114.997 156.332 115.642 155.544C116.287 154.757 117.233 154.246 118.273 154.124C119.313 154.002 120.361 154.28 121.187 154.895L148.352 174.986L185.866 142.123C186.632 141.445 187.649 141.085 188.693 141.121C189.737 141.158 190.724 141.59 191.435 142.32C192.146 143.051 192.524 144.021 192.485 145.018C192.446 146.014 191.994 146.955 191.228 147.633L151.258 182.665C150.518 183.32 149.544 183.681 148.534 183.674Z" fill="#5ED8FF"/>
<path d="M168.732 69.5188H134.587C134.056 69.5188 133.626 69.9291 133.626 70.4352V82.2324C133.626 82.7385 134.056 83.1488 134.587 83.1488H168.732C169.263 83.1488 169.693 82.7385 169.693 82.2324V70.4352C169.693 69.9291 169.263 69.5188 168.732 69.5188Z" fill="#5ED8FF"/>
<path d="M160.974 76.3396H142.333V92.4636H160.974V76.3396Z" fill="#5ED8FF"/>
<path d="M74.7115 111.232L60.7086 127.775C60.1643 128.418 60.2695 129.36 60.9436 129.879L70.5179 137.254C71.1919 137.774 72.1795 137.673 72.7238 137.03L86.7267 120.487C87.2709 119.844 87.1657 118.902 86.4917 118.383L76.9174 111.008C76.2434 110.489 75.2558 110.589 74.7115 111.232Z" fill="#5ED8FF"/>
<path d="M168.732 83.1488C168.732 83.346 161.084 83.4968 151.708 83.4968C142.333 83.4968 134.684 83.346 134.684 83.1488C134.684 82.9516 142.321 82.8008 151.708 82.8008C161.096 82.8008 168.732 82.9632 168.732 83.1488Z" fill="#263238"/>
<path d="M74.3949 134.189C74.2003 134.398 71.6224 132.518 68.4365 130.233C65.2506 127.948 62.6605 126.092 62.8186 125.86C62.9766 125.628 65.8342 127.136 69.0566 129.444C72.279 131.753 74.5773 133.992 74.3949 134.189Z" fill="#263238"/>
<path d="M77.3619 130.024C77.1674 130.233 74.5895 128.354 71.4035 126.069C68.2176 123.784 65.6154 121.928 65.7735 121.696C65.9315 121.464 68.8013 122.972 72.0237 125.292C75.2461 127.612 77.5443 129.827 77.3619 130.024Z" fill="#263238"/>
<path d="M80.9978 126.533C80.8154 126.742 78.2375 124.862 75.0515 122.577C71.8656 120.292 69.312 118.436 69.4215 118.204C69.5309 117.972 72.4493 119.48 75.6595 121.8C78.8698 124.12 81.1923 126.336 80.9978 126.533Z" fill="#263238"/>
<path d="M84.5242 122.368C84.3418 122.577 81.7517 120.698 78.5658 118.413C75.3798 116.128 72.7898 114.272 72.96 114.04C73.1302 113.808 75.9878 115.316 79.1981 117.636C82.4083 119.956 84.7066 122.171 84.5242 122.368Z" fill="#263238"/>
<path d="M237.372 116.461L222.299 100.797C221.713 100.188 220.721 100.147 220.083 100.706L211.017 108.645C210.379 109.204 210.336 110.15 210.922 110.759L225.995 126.423C226.581 127.032 227.573 127.072 228.211 126.514L237.277 118.575C237.915 118.016 237.958 117.07 237.372 116.461Z" fill="#5ED8FF"/>
<path d="M213.615 112.775C213.432 112.566 215.755 110.455 218.6 107.741C221.446 105.026 223.744 102.904 223.963 103.101C224.182 103.298 222.2 105.769 219.318 108.46C216.436 111.151 213.785 112.972 213.615 112.775Z" fill="#263238"/>
<path d="M217.494 116.186C217.299 115.977 219.634 113.866 222.467 111.151C225.3 108.437 227.623 106.314 227.842 106.511C228.061 106.708 226.067 109.179 223.197 111.87C220.327 114.562 217.664 116.383 217.494 116.186Z" fill="#263238"/>
<path d="M220.57 120.141C220.376 119.932 222.71 117.821 225.544 115.107C228.377 112.392 230.7 110.27 230.918 110.467C231.137 110.664 229.143 113.123 226.261 115.814C223.379 118.506 220.74 120.338 220.57 120.141Z" fill="#263238"/>
<path d="M224.364 124.12C224.17 123.911 226.504 121.8 229.338 119.086C232.171 116.371 234.493 114.248 234.712 114.446C234.931 114.643 232.937 117.114 230.055 119.805C227.173 122.496 224.534 124.282 224.364 124.12Z" fill="#263238"/>
<path d="M138.417 83.1372C138.138 83.1372 137.907 80.1212 137.907 76.4208C137.907 72.7204 138.138 69.6928 138.417 69.6928C138.697 69.6928 138.94 72.7088 138.94 76.4208C138.94 80.1328 138.709 83.1372 138.417 83.1372Z" fill="#263238"/>
<path d="M145.105 83.1372C144.826 83.1372 144.595 80.1212 144.595 76.4208C144.595 72.7204 144.826 69.6928 145.105 69.6928C145.385 69.6928 145.616 72.7088 145.616 76.4208C145.616 80.1328 145.385 83.1372 145.105 83.1372Z" fill="#263238"/>
<path d="M151.781 83.1372C151.501 83.1372 151.27 80.1212 151.27 76.4208C151.27 72.7204 151.501 69.6928 151.781 69.6928C152.061 69.6928 152.292 72.7088 152.292 76.4208C152.292 80.1328 152.073 83.1372 151.781 83.1372Z" fill="#263238"/>
<path d="M158.469 83.1372C158.177 83.1372 157.958 80.1212 157.958 76.4208C157.958 72.7204 158.177 69.6928 158.469 69.6928C158.761 69.6928 158.98 72.7088 158.98 76.4208C158.98 80.1328 158.749 83.1372 158.469 83.1372Z" fill="#263238"/>
<path d="M165.145 83.1372C164.865 83.1372 164.634 80.1212 164.634 76.4208C164.634 72.7204 164.865 69.6928 165.145 69.6928C165.425 69.6928 165.656 72.7088 165.656 76.4208C165.656 80.1328 165.376 83.1372 165.145 83.1372Z" fill="#263238"/>
<path d="M155.762 184.645C159.248 181.32 159.248 175.929 155.762 172.604C152.277 169.279 146.625 169.279 143.14 172.604C139.654 175.929 139.654 181.32 143.14 184.645C146.625 187.97 152.277 187.97 155.762 184.645Z" fill="#5ED8FF"/>
<path d="M158.372 178.64C158.287 178.64 158.299 177.886 157.922 176.598C157.381 174.802 156.231 173.227 154.651 172.121C153.385 171.224 151.882 170.68 150.31 170.55C148.739 170.42 147.161 170.71 145.751 171.386C144.342 172.062 143.158 173.098 142.33 174.379C141.503 175.66 141.064 177.135 141.064 178.64C141.064 180.145 141.503 181.62 142.33 182.901C143.158 184.182 144.342 185.218 145.751 185.894C147.161 186.57 148.739 186.86 150.31 186.73C151.882 186.6 153.385 186.056 154.651 185.159C156.228 184.051 157.378 182.477 157.922 180.682C158.299 179.394 158.287 178.64 158.372 178.64C158.457 178.64 158.372 178.826 158.372 179.185C158.391 179.716 158.334 180.247 158.202 180.763C157.765 182.699 156.629 184.428 154.991 185.646C153.768 186.563 152.321 187.169 150.786 187.408C149.251 187.647 147.677 187.512 146.212 187.015C144.397 186.402 142.827 185.267 141.716 183.767C140.605 182.268 140.009 180.476 140.009 178.64C140.009 176.804 140.605 175.012 141.716 173.513C142.827 172.013 144.397 170.878 146.212 170.265C147.677 169.769 149.249 169.634 150.784 169.871C152.318 170.108 153.765 170.711 154.991 171.622C156.628 172.846 157.764 174.578 158.202 176.517C158.334 177.033 158.391 177.564 158.372 178.095C158.433 178.431 158.408 178.64 158.372 178.64Z" fill="#263238"/>
<path d="M463.624 207.802L478.873 205.482C488.867 213.175 501.517 217.023 514.335 216.27C527.152 215.516 539.211 210.217 548.14 201.412C557.069 192.607 562.223 180.935 562.588 168.689C562.953 156.444 558.503 144.511 550.113 135.236C541.723 125.962 529.999 120.017 517.247 118.57C504.495 117.123 491.637 120.279 481.2 127.417C470.764 134.556 463.504 145.16 460.848 157.146C458.192 169.132 460.331 181.632 466.847 192.189L463.624 207.802Z" fill="white"/>
<path d="M463.624 207.802C463.624 207.802 463.624 207.478 463.795 206.816L464.378 203.847C464.901 201.179 465.679 197.27 466.689 192.166C466.691 192.149 466.698 192.133 466.707 192.119C466.717 192.105 466.73 192.093 466.745 192.084C466.76 192.075 466.777 192.07 466.795 192.068C466.812 192.066 466.83 192.068 466.847 192.073C466.858 192.067 466.87 192.063 466.883 192.063C466.896 192.063 466.909 192.067 466.92 192.073L466.701 192.235C462.349 185.228 459.889 177.3 459.539 169.163C459.431 166.63 459.532 164.094 459.843 161.576C460.204 158.882 460.781 156.218 461.569 153.607C464.441 144.143 470.226 135.72 478.174 129.429C486.122 123.137 495.868 119.267 506.148 118.32C514.214 117.594 522.346 118.693 529.882 121.529C537.419 124.365 544.148 128.858 549.523 134.641L551.59 136.961C552.234 137.773 552.806 138.62 553.438 139.432C554.639 141.083 555.731 142.803 556.709 144.582C557.244 145.441 557.585 146.392 558.035 147.285C558.484 148.178 558.947 149.072 559.251 150.023C559.971 151.864 560.568 153.747 561.038 155.66C562.909 163.096 562.971 170.841 561.22 178.304C558.875 188.007 553.499 196.803 545.803 203.531C538.106 210.258 528.451 214.599 518.113 215.98C515.273 216.348 512.407 216.507 509.54 216.456C506.879 216.336 504.228 216.064 501.6 215.644C493.234 214.158 485.391 210.696 478.788 205.575H478.897L467.491 207.211L464.585 207.617L463.624 207.744L464.634 207.57L467.564 207.106L478.849 205.32H478.958C485.554 210.357 493.36 213.749 501.673 215.192C504.28 215.606 506.912 215.865 509.553 215.969C512.399 216.013 515.245 215.846 518.065 215.47C528.278 214.06 537.807 209.74 545.401 203.074C552.996 196.409 558.302 187.71 560.625 178.118C562.342 170.741 562.272 163.088 560.418 155.742C559.942 153.855 559.353 151.996 558.655 150.174C558.351 149.234 557.84 148.376 557.439 147.471C557.037 146.566 556.648 145.65 556.125 144.803C555.162 143.045 554.082 141.348 552.891 139.722C552.283 138.91 551.675 138.075 551.067 137.274L549.024 134.954C543.715 129.241 537.07 124.801 529.627 121.994C522.185 119.187 514.153 118.091 506.184 118.796C499.129 119.461 492.296 121.514 486.115 124.827C479.934 128.139 474.541 132.638 470.276 138.04C466.559 142.766 463.781 148.101 462.08 153.781C461.294 156.365 460.713 159.002 460.341 161.669C460.019 164.166 459.905 166.683 460.001 169.198C460.298 177.278 462.683 185.164 466.944 192.154C466.967 192.178 466.98 192.209 466.98 192.241C466.98 192.273 466.967 192.304 466.944 192.328C466.92 192.347 466.89 192.357 466.859 192.357C466.828 192.357 466.798 192.347 466.774 192.328L466.993 192.258C465.923 197.304 465.096 201.179 464.561 203.858C464.281 205.169 464.062 206.178 463.916 206.851C463.77 207.524 463.624 207.802 463.624 207.802Z" fill="#263238"/>
<path d="M526.723 168.757C526.72 167.772 527.024 166.808 527.597 165.988C528.169 165.168 528.984 164.528 529.937 164.15C530.891 163.772 531.941 163.672 532.954 163.864C533.967 164.056 534.898 164.53 535.628 165.226C536.358 165.923 536.855 166.811 537.056 167.777C537.257 168.744 537.153 169.745 536.756 170.655C536.36 171.565 535.69 172.342 534.83 172.888C533.97 173.434 532.96 173.724 531.927 173.722C530.548 173.719 529.226 173.194 528.251 172.264C527.275 171.334 526.726 170.073 526.723 168.757Z" fill="#263238"/>
<path d="M505.856 168.757C505.854 167.772 506.158 166.809 506.729 165.989C507.301 165.169 508.115 164.529 509.068 164.151C510.021 163.772 511.07 163.672 512.083 163.863C513.096 164.054 514.026 164.527 514.757 165.222C515.488 165.918 515.986 166.804 516.188 167.77C516.39 168.736 516.288 169.737 515.893 170.647C515.499 171.557 514.83 172.335 513.972 172.882C513.114 173.429 512.105 173.722 511.073 173.722C509.691 173.722 508.366 173.199 507.388 172.268C506.41 171.337 505.859 170.075 505.856 168.757Z" fill="#263238"/>
<path d="M485.05 171.239C484.534 170.387 484.295 169.408 484.362 168.426C484.43 167.443 484.801 166.502 485.429 165.721C486.057 164.941 486.914 164.355 487.891 164.038C488.868 163.722 489.921 163.689 490.918 163.944C491.914 164.199 492.81 164.729 493.49 165.469C494.17 166.209 494.605 167.125 494.74 168.101C494.875 169.077 494.703 170.069 494.246 170.952C493.79 171.834 493.07 172.568 492.176 173.06C490.977 173.717 489.554 173.894 488.219 173.553C486.884 173.212 485.744 172.38 485.05 171.239Z" fill="#263238"/>
<path d="M120.737 346.84C117.539 345.39 112.152 342.362 108.82 341.179C105.526 339.835 101.852 339.598 98.3987 340.506C96.441 341.133 94.4832 342.629 94.471 344.601L107.543 353.8L120.737 350.482V346.84Z" fill="#FF9A6C"/>
<path d="M106.436 346.712C106.436 346.712 82.9555 341.852 79.04 339.938C75.1245 338.024 54.72 328.28 51.303 328.28C47.8861 328.28 44.9677 329.162 44.3475 332.41L48.8102 335.716L49.3818 337.409L57.0182 341.202L58.368 343.592L77.824 353.498C77.824 353.498 98.2285 363.382 101.633 363.938C105.038 364.495 122.038 365.852 129.309 371.757L158.493 360.319C158.493 360.319 150.067 348.905 143.573 346.086C137.785 343.58 128.069 343.58 121.272 346.237L106.436 346.712Z" fill="#FFBF9D"/>
<path d="M125.965 365.4C125.965 365.4 163.114 442.679 169.097 458.2C169.097 458.2 210.623 451.681 212.046 429.699L158.542 360.099L125.965 365.4Z" fill="#FFBF9D"/>
<path d="M91.4675 348.464C91.4675 348.464 91.3216 348.464 91.0663 348.464C90.6864 348.428 90.3115 348.354 89.9475 348.244C88.6158 347.857 87.3219 347.36 86.0807 346.759C84.4999 346.028 82.6637 345.065 80.6451 343.986C79.6359 343.453 78.5779 342.884 77.4714 342.339C76.3648 341.794 75.161 341.318 73.9328 340.808C71.6588 339.826 69.3091 339.011 66.9043 338.372C64.7034 337.85 62.5875 337.456 60.9946 337.966C60.3767 338.202 59.8161 338.556 59.3476 339.007C58.8791 339.458 58.5126 339.996 58.2707 340.588C58.0911 341.04 57.884 341.481 57.6506 341.91C57.6506 341.91 57.6506 341.771 57.7114 341.539C57.7927 341.183 57.9024 340.834 58.0397 340.495C58.2546 339.954 58.545 339.442 58.9031 338.975C59.3763 338.336 60.0359 337.844 60.8 337.56C61.7426 337.259 62.7442 337.164 63.7306 337.282C64.8336 337.386 65.927 337.568 67.0016 337.827C69.4577 338.444 71.857 339.251 74.176 340.24C75.392 340.75 76.608 341.226 77.7389 341.794C78.8698 342.362 79.9155 342.954 80.9248 343.499C82.9312 344.601 84.7309 345.599 86.2752 346.364C87.4718 346.988 88.7109 347.534 89.984 348C90.9325 348.336 91.4675 348.406 91.4675 348.464Z" fill="#FF9A6C"/>
<path d="M69.0688 337.351C67.924 337.131 66.8156 336.764 65.7734 336.261C63.2655 335.132 60.6867 334.151 58.0518 333.326C56.6101 332.936 55.1034 332.814 53.6134 332.966C53.0189 332.984 52.4343 333.116 51.895 333.355C51.3557 333.594 50.873 333.936 50.4762 334.358C50.0006 334.987 49.6881 335.715 49.5642 336.481C49.5531 336.779 49.4915 337.073 49.3818 337.351C49.3249 337.056 49.3249 336.753 49.3818 336.458C49.4272 335.63 49.7044 334.829 50.1843 334.138C50.5565 333.655 51.0388 333.258 51.5949 332.978C52.2309 332.689 52.9133 332.505 53.6134 332.433C55.1818 332.245 56.7739 332.359 58.295 332.769C60.9673 333.587 63.5559 334.635 66.0288 335.901C67.0687 336.332 68.0835 336.816 69.0688 337.351Z" fill="#FF9A6C"/>
<path d="M127.68 344.52C127.68 344.52 127.352 344.706 126.732 344.914C125.842 345.221 124.937 345.484 124.02 345.703C121.001 346.453 117.907 346.892 114.79 347.014C111.675 347.142 108.553 346.964 105.476 346.48C104.26 346.283 103.36 346.086 102.716 345.912C102.371 345.862 102.038 345.757 101.731 345.599C101.731 345.506 103.19 345.773 105.549 346.051C108.606 346.412 111.689 346.532 114.766 346.411C117.846 346.259 120.908 345.871 123.923 345.251C126.172 344.833 127.595 344.439 127.68 344.52Z" fill="#FF9A6C"/>
<path d="M473.559 298.642L419.52 287.97L406.144 278.4L334.765 291.531C333.622 293.526 322.058 308.931 322.058 308.931L293.944 318.037C281.995 321.032 271.33 327.523 263.446 336.597C255.95 345.429 249.809 355.232 245.206 365.713C232.56 394.029 214.308 426.741 214.308 426.741L202.865 409.155L154.639 430.824C154.639 430.824 182.886 485.147 192.237 492.907C202.634 501.526 226.541 502.524 243.066 486.446C253.025 476.748 281.808 438.422 287.803 428.829L296.704 468.942L304.888 514.727L291.658 546.244H484.758L476.769 516.455C476.769 516.455 484.637 438.816 486.813 424.363C491.933 390.27 473.559 298.642 473.559 298.642Z" fill="#5ED8FF"/>
<path d="M473.559 298.642C473.559 298.642 512.228 308.989 520.74 345.657C525.896 367.871 543.406 431.195 549.571 483.326C553.219 514.321 553.122 542.961 553.219 546.244H493.878L468.732 308.989L473.559 298.642Z" fill="#5ED8FF"/>
<path d="M374.382 330.124C374.382 330.124 374.382 330.264 374.224 330.507L373.677 331.574C373.19 332.514 372.461 333.894 371.67 335.646C369.956 339.126 367.937 344.288 364.678 350.053L364.52 350.343L364.253 350.123C360.24 346.863 355.887 342.942 351.388 338.708C343.423 331.168 336.443 324.15 331.287 319.174L325.146 313.293L323.456 311.704C323.25 311.528 323.063 311.334 322.897 311.124C323.132 311.265 323.348 311.432 323.541 311.622L325.292 313.13C326.8 314.453 328.94 316.413 331.579 318.872C336.82 323.779 343.86 330.751 351.801 338.279C356.3 342.513 360.629 346.399 364.593 349.717L364.156 349.786C367.439 344.102 369.53 338.964 371.33 335.507C372.218 333.755 372.959 332.41 373.494 331.493C373.738 331.087 373.944 330.739 374.115 330.472C374.19 330.348 374.28 330.231 374.382 330.124Z" fill="black"/>
<path d="M420.274 289.281C420.27 289.555 420.233 289.827 420.164 290.093C420.043 290.673 419.897 291.438 419.715 292.413C419.277 294.408 418.499 297.285 417.501 300.788C415.398 307.748 411.993 317.364 407.773 327.746C405.548 333.245 403.359 338.442 401.316 343.047L401.158 343.406L400.854 343.151C395.346 338.511 390.409 334.857 387.065 332.143C385.387 330.786 384.074 329.695 383.186 328.93L382.201 328.048C381.97 327.839 381.86 327.735 381.873 327.723C382.013 327.793 382.143 327.879 382.262 327.978L383.307 328.802L387.284 331.888C390.701 334.532 395.674 338.117 401.243 342.734L400.781 342.838C402.788 338.198 404.964 333.024 407.178 327.538C411.348 317.098 414.814 307.644 417.015 300.672C418.109 297.192 418.912 294.338 419.447 292.355C419.678 291.415 419.873 290.661 420.019 290.035C420.084 289.778 420.169 289.526 420.274 289.281Z" fill="black"/>
<path d="M295.184 463.803C295.133 463.724 295.096 463.638 295.075 463.548L294.819 462.759C294.6 461.986 294.296 460.965 293.907 459.696C293.494 458.374 293.092 456.738 292.606 454.836C292.12 452.934 291.597 450.753 291.074 448.34C288.384 435.754 286.491 423.025 285.407 410.222C284.033 395.224 283.729 381.594 283.802 371.745C283.802 366.815 283.936 362.825 284.082 360.076C284.155 358.73 284.204 357.674 284.24 356.897C284.24 356.572 284.24 356.294 284.301 356.074C284.288 355.981 284.288 355.888 284.301 355.795C284.311 355.892 284.311 355.989 284.301 356.085V356.909C284.301 357.686 284.301 358.742 284.301 360.076C284.301 362.836 284.204 366.815 284.228 371.745C284.228 381.582 284.641 395.2 286.015 410.164C287.109 422.948 288.936 435.666 291.487 448.259C291.986 450.672 292.448 452.899 292.922 454.755C293.396 456.611 293.749 458.316 294.138 459.638L294.941 462.724L295.123 463.524C295.184 463.71 295.196 463.803 295.184 463.803Z" fill="black"/>
<path d="M476.769 339.312C476.841 339.412 476.899 339.521 476.939 339.636C477.049 339.88 477.195 340.193 477.365 340.588C477.754 341.469 478.277 342.71 478.958 344.276C479.299 345.088 479.7 345.97 480.089 346.956L481.244 350.204C481.658 351.364 482.095 352.628 482.57 353.951C483.044 355.273 483.36 356.723 483.786 358.22C487.434 370.156 489.258 387.428 488.212 406.325C487.166 425.221 484.831 442.285 483.348 454.534C482.606 460.659 481.998 465.636 481.572 469.116C481.366 470.798 481.195 472.132 481.074 473.071L480.928 474.104C480.919 474.222 480.895 474.339 480.855 474.452C480.839 474.336 480.839 474.219 480.855 474.104L480.94 473.06C481.037 472.108 481.171 470.74 481.329 469.092C481.67 465.612 482.205 460.648 482.898 454.488C484.223 442.169 486.461 425.163 487.531 406.302C488.601 387.44 486.801 370.26 483.311 358.324L482.095 354.055L480.879 350.32C480.49 349.16 480.125 348.058 479.785 347.06C479.444 346.063 479.031 345.17 478.703 344.358C478.07 342.768 477.584 341.527 477.219 340.634C477.073 340.228 476.952 339.915 476.854 339.66C476.807 339.548 476.779 339.431 476.769 339.312Z" fill="black"/>
<path d="M214.624 466.239C214.454 466.239 214.247 457.4 214.174 446.519C214.101 435.638 214.174 426.799 214.356 426.799C214.539 426.799 214.733 435.638 214.806 446.519C214.879 457.4 214.806 466.239 214.624 466.239Z" fill="black"/>
<path d="M390.093 519.773V519.286C390.093 518.938 390.19 518.474 390.263 517.87C390.433 516.594 390.664 514.773 390.968 512.43C391.126 511.27 391.297 509.936 391.491 508.509C391.686 507.082 391.832 505.505 392.014 503.869C392.367 500.505 392.853 496.689 393.23 492.443C393.412 490.332 393.595 488.105 393.802 485.796C394.008 483.488 394.106 481.075 394.264 478.581C394.628 473.593 394.787 468.246 394.993 462.631C395.261 451.391 395.224 439.025 394.616 426.068C394.008 413.111 392.768 400.792 391.394 389.621C390.628 384.041 389.959 378.74 389.096 373.81C388.694 371.339 388.342 368.95 387.88 366.664C387.418 364.379 387.041 362.187 386.664 360.087C385.922 355.9 385.071 352.141 384.378 348.824C384.025 347.165 383.709 345.622 383.405 344.184C383.101 342.745 382.772 341.481 382.493 340.321L381.277 334.973C381.155 334.382 381.046 333.918 380.973 333.581C380.9 333.245 380.888 333.094 380.888 333.094C380.949 333.245 380.998 333.4 381.034 333.558L381.411 334.938L382.76 340.274L383.721 344.126C384.037 345.541 384.378 347.072 384.755 348.766C385.472 352.072 386.36 355.83 387.126 360.018C387.531 362.113 387.936 364.306 388.342 366.595C388.78 368.915 389.132 371.235 389.558 373.74C390.433 378.682 391.126 383.983 391.917 389.563C393.315 400.745 394.507 413.076 395.188 426.045C395.869 439.014 395.82 451.402 395.516 462.654C395.285 468.28 395.115 473.628 394.726 478.616C394.556 481.11 394.434 483.523 394.227 485.843C394.02 488.163 393.802 490.378 393.607 492.501C393.267 496.747 392.744 500.621 392.391 503.916C392.184 505.598 391.99 507.164 391.82 508.556C391.649 509.948 391.418 511.293 391.236 512.476C390.883 514.796 390.604 516.629 390.421 517.894L390.19 519.309C390.172 519.466 390.139 519.621 390.093 519.773Z" fill="black"/>
<path d="M415.799 394.562H416.042L416.808 394.481L419.787 394.156L431.181 392.996L471.735 388.983H472.039V389.273C472.343 400.977 472.708 414.224 473.085 428.272V428.4L473 428.481L468.136 433.504L450.406 451.576L450.248 451.739L450.042 451.634L420.164 437.482L420.031 437.424V437.32C418.73 424.386 417.599 413.691 416.906 406.186C416.541 402.497 416.261 399.597 416.067 397.59C415.981 396.627 415.908 395.885 415.86 395.34C415.811 394.794 415.86 394.597 415.86 394.597C415.86 394.597 415.86 394.876 415.969 395.386C416.079 395.896 416.127 396.697 416.249 397.706C416.468 399.736 416.796 402.648 417.222 406.36C418.036 413.807 419.192 424.444 420.602 437.308L420.456 437.111L450.37 451.182L450.017 451.24L467.71 433.098L472.574 428.086L472.489 428.295C472.136 414.248 471.796 401.012 471.504 389.296L471.82 389.551L431.388 393.24L419.921 394.261L416.869 394.516L416.079 394.586L415.799 394.562Z" fill="black"/>
<path d="M472.112 402.729C471.423 402.911 470.719 403.039 470.008 403.112C468.646 403.32 466.676 403.587 464.232 403.889C459.368 404.48 452.571 405.165 445.092 405.849L425.928 407.636L420.128 408.216C419.424 408.323 418.713 408.374 418 408.366C418.689 408.184 419.393 408.056 420.104 407.984C421.466 407.775 423.436 407.508 425.88 407.206C430.744 406.615 437.541 405.93 445.032 405.246L464.184 403.46L469.984 402.88C470.688 402.772 471.399 402.721 472.112 402.729Z" fill="black"/>
<g opacity="0.3">
<path d="M483.859 448.352L485.901 472.05C490.413 451.75 497.502 429.931 496.396 409.213C495.289 388.496 493.246 368.671 481.013 349.914C486.331 364.036 488.771 378.998 488.2 393.994C487.081 418.238 483.859 448.352 483.859 448.352Z" fill="black"/>
</g>
<path d="M206.574 404.237C205.917 402.809 204.755 401.647 203.291 400.954C201.588 400.397 199.74 401.186 198.123 401.952L154.006 422.901C151.1 424.282 147.926 425.917 146.856 428.817C145.458 432.529 148.072 436.45 150.504 439.64C154.566 444.964 159.43 450.764 166.312 451.518L204.264 426.694C208.897 426.045 211.779 421.115 211.56 416.649C211.341 412.183 208.933 408.111 206.574 404.237Z" fill="#5ED8FF"/>
<path d="M211.365 419.41C211.253 419.559 211.122 419.695 210.976 419.816L209.76 420.894C208.714 421.822 207.17 423.133 205.236 424.711C201.357 427.878 195.849 432.088 189.428 436.38C183.008 440.672 177.135 444.21 172.672 446.6C170.459 447.818 168.647 448.769 167.382 449.396L165.923 450.103C165.583 450.266 165.4 450.335 165.388 450.312C165.529 450.185 165.689 450.08 165.862 449.999L167.261 449.187L172.441 446.229C176.806 443.723 182.753 440.127 189.1 435.847C195.448 431.566 200.993 427.425 204.908 424.351L209.565 420.674L210.781 419.688C211.195 419.502 211.353 419.386 211.365 419.41Z" fill="black"/>
<g opacity="0.3">
<path d="M419.702 291.937C414.51 308.386 407.238 326.992 401.098 342.977C395.869 338.743 388.549 333.14 383.308 328.895C387.818 337.431 393.233 345.504 399.468 352.988C400.198 353.858 401.171 354.809 402.301 354.6C403.432 354.392 403.943 353.278 404.332 352.28L413.902 328.118C418.377 316.819 422.694 303.642 419.702 291.937Z" fill="black"/>
</g>
<path d="M337.622 112.984C353.43 108.646 368.217 112.984 382.797 120.199C397.377 127.414 409.135 139.328 416.748 153.19C424.773 167.794 428.324 184.811 425.418 201.063C422.511 217.314 412.881 232.626 398.459 241.663C378.748 254.052 351.582 253.402 331.287 241.93C310.992 230.457 297.628 209.31 294.09 187.05C291.658 171.715 293.628 155.544 301.13 141.81C308.633 128.076 321.9 116.94 337.61 112.972" fill="#263238"/>
<path d="M389.521 160.184C386.469 154.582 386.603 147.935 384.937 141.81C381.289 128.342 368.399 118.61 354.391 114.724C341.368 111.093 326.301 113.819 311.831 120.06C301.933 124.34 292.922 130.906 287.012 139.606C283.147 145.437 280.799 152.066 280.165 158.939C279.53 165.811 280.627 172.729 283.364 179.116L355.583 160.996C363.098 165.636 370.795 170.427 379.489 172.596C382.019 173.343 384.706 173.459 387.296 172.933C388.581 172.643 389.752 172.006 390.668 171.099C391.584 170.192 392.208 169.053 392.464 167.817C392.768 165.056 390.847 162.632 389.521 160.184Z" fill="#263238"/>
<path d="M406.752 282.344L388.111 157.273C387.284 151.357 384.463 145.325 378.225 145.603L312.561 139.571C291.986 140.476 282.331 166.251 284.155 185.774C286.186 207.512 289.554 233.972 294.795 249.655C305.338 281.172 331.956 281.497 331.956 281.497C331.956 281.497 333.573 287.761 335.604 299.477L378.164 326.482L406.752 282.344Z" fill="#FFBF9D"/>
<path d="M300.024 209.566C300.187 210.647 300.787 211.625 301.696 212.291C302.605 212.956 303.75 213.256 304.888 213.127C305.447 213.089 305.993 212.945 306.493 212.702C306.992 212.46 307.436 212.125 307.798 211.716C308.159 211.307 308.432 210.833 308.598 210.322C308.764 209.812 308.822 209.274 308.767 208.742C308.6 207.661 308 206.684 307.092 206.017C306.185 205.35 305.041 205.046 303.903 205.169C303.343 205.21 302.798 205.357 302.299 205.601C301.8 205.845 301.357 206.181 300.996 206.591C300.635 207 300.363 207.474 300.196 207.985C300.029 208.496 299.97 209.033 300.024 209.566Z" fill="#263238"/>
<path d="M292.363 198.604C292.983 199.068 295.901 196.284 300.583 195.599C305.265 194.915 309.034 196.666 309.46 196.04C309.667 195.762 308.961 194.88 307.307 194.045C305.07 193.009 302.553 192.653 300.097 193.024C297.664 193.369 295.41 194.446 293.664 196.098C292.387 197.351 292.059 198.36 292.363 198.604Z" fill="#263238"/>
<path d="M343.228 202.861C343.389 203.945 343.987 204.925 344.897 205.593C345.806 206.261 346.953 206.563 348.092 206.434C348.651 206.396 349.197 206.252 349.697 206.009C350.197 205.767 350.641 205.431 351.002 205.023C351.364 204.614 351.636 204.14 351.802 203.629C351.969 203.119 352.026 202.581 351.971 202.049C351.811 200.965 351.212 199.984 350.303 199.316C349.394 198.649 348.247 198.347 347.107 198.476C346.548 198.515 346.004 198.661 345.505 198.903C345.006 199.146 344.562 199.482 344.201 199.89C343.84 200.299 343.568 200.772 343.4 201.282C343.233 201.792 343.175 202.329 343.228 202.861Z" fill="#263238"/>
<path d="M336.832 192.699C337.452 193.163 340.383 190.379 345.052 189.695C349.722 189.01 353.503 190.762 353.929 190.136C354.136 189.857 353.43 188.976 351.777 188.14C349.535 187.102 347.014 186.746 344.554 187.12C342.09 187.466 339.809 188.56 338.048 190.24C336.832 191.4 336.504 192.56 336.832 192.699Z" fill="#263238"/>
<path d="M326.764 228.276C326.764 228.021 323.76 227.963 318.969 228.079C317.753 228.079 316.537 228.079 316.257 227.325C315.978 226.571 316.148 225.249 316.513 223.845C317.194 220.93 317.911 217.871 318.665 214.67C321.583 201.608 323.529 190.948 322.957 190.843C322.386 190.739 319.589 201.283 316.659 214.275C315.965 217.488 315.297 220.562 314.676 223.497C314.433 224.854 313.886 226.432 314.774 228.044C315.007 228.424 315.329 228.746 315.716 228.985C316.102 229.225 316.541 229.375 316.999 229.425C317.685 229.513 318.38 229.513 319.066 229.425C323.845 228.938 326.788 228.52 326.764 228.276Z" fill="#263238"/>
<path d="M331.968 281.497C347.956 279.401 363.019 273.108 375.476 263.32C375.476 263.32 364.861 288.666 334.132 291.218L331.968 281.497Z" fill="#FF9A6C"/>
<path d="M330.46 238.74C331.178 237.543 332.203 236.54 333.439 235.826C334.675 235.111 336.081 234.709 337.525 234.656C338.575 234.599 339.626 234.745 340.614 235.086C341.603 235.427 342.509 235.955 343.277 236.64C344.02 237.293 344.536 238.149 344.753 239.091C344.971 240.033 344.88 241.015 344.493 241.906C343.508 243.774 340.93 244.551 338.607 244.226C336.281 243.804 334.065 242.944 332.09 241.698C331.501 241.41 330.977 241.016 330.545 240.538C330.333 240.318 330.195 240.042 330.147 239.747C330.1 239.452 330.145 239.149 330.278 238.879" fill="#FF9A6C"/>
<path d="M341.015 229.355C340.237 229.425 341.015 234.274 337.209 238.334C333.403 242.394 327.943 242.66 328.004 243.333C328.004 243.658 329.366 244.099 331.652 243.832C334.632 243.438 337.37 242.054 339.386 239.923C341.319 237.881 342.344 235.202 342.243 232.452C342.109 230.399 341.355 229.286 341.015 229.355Z" fill="#263238"/>
<path d="M335.494 179.382C336.151 180.542 340.723 179.278 346.305 179.104C351.886 178.93 356.556 179.719 357.103 178.524C357.346 177.956 356.397 176.935 354.415 176.018C351.799 174.929 348.957 174.421 346.105 174.533C343.252 174.646 340.464 175.376 337.951 176.668C336.066 177.735 335.203 178.837 335.494 179.382Z" fill="#263238"/>
<path d="M290.624 178.918C291.609 179.812 294.661 178.292 298.528 177.677C302.395 177.062 305.824 177.318 306.359 176.146C306.614 175.578 305.933 174.65 304.353 173.896C302.244 173.03 299.915 172.779 297.657 173.175C295.4 173.572 293.316 174.597 291.67 176.123C290.442 177.364 290.162 178.478 290.624 178.918Z" fill="#263238"/>
<path d="M400.149 149.478C391.297 131.567 359.267 109.33 338.936 113.309L308.791 136.23C310.601 141.432 313.85 146.07 318.195 149.655C322.54 153.241 327.82 155.64 333.476 156.6C339.495 157.551 346.548 157.122 350.658 161.437C354.768 165.752 353.783 173.176 357.759 177.758C363.268 184.115 375.622 182.213 380.073 189.289C382.031 192.374 381.8 196.388 383.794 199.45C386.469 203.522 398.739 207.57 403.25 205.506C407.761 203.441 406.74 195.738 407.725 191.481C409.415 184.231 407.81 180.786 406.399 177.028C403.104 168.119 404.381 158.015 400.149 149.478Z" fill="#263238"/>
<path d="M389.789 211.12C389.412 208.707 391.418 202.617 393.85 201.84C400.344 199.891 412.419 198.65 415.106 214.751C418.754 236.791 394.872 235.735 394.714 235.109C394.556 234.482 391.102 219.402 389.789 211.12Z" fill="#FFBF9D"/>
<path d="M400.368 225.713C400.465 225.62 400.818 225.922 401.584 226.107C402.605 226.359 403.688 226.217 404.6 225.713C406.886 224.495 408.321 220.493 407.773 216.502C407.516 214.608 406.818 212.793 405.731 211.19C405.401 210.534 404.908 209.966 404.296 209.533C403.684 209.1 402.97 208.817 402.216 208.707C401.735 208.66 401.252 208.776 400.852 209.034C400.451 209.293 400.16 209.679 400.028 210.122C399.821 210.784 400.028 211.201 399.918 211.282C399.809 211.364 399.371 210.992 399.395 210.053C399.435 209.491 399.676 208.959 400.076 208.545C400.632 207.987 401.397 207.661 402.204 207.64C404.004 207.489 405.852 208.8 406.971 210.412C408.273 212.171 409.108 214.205 409.403 216.34C409.999 220.794 408.309 225.307 405.123 226.78C404.534 227.047 403.89 227.186 403.238 227.186C402.586 227.186 401.942 227.047 401.353 226.78C400.502 226.2 400.295 225.759 400.368 225.713Z" fill="#FF9A6C"/>
<path d="M314.725 128.818C313.667 138.098 300.692 151.148 295.269 158.839C284.848 173.513 283 178.211 286.672 208.092C279.765 198.383 274.22 188.732 273.296 177.028C272.372 165.323 275.46 153.178 282.951 143.875C290.442 134.572 302.492 128.447 314.786 128.795" fill="#263238"/>
<path d="M369.822 97.3472C374.686 92.2316 381.715 88.9024 389.011 87.1624C399.407 84.68 410.826 85.3528 420.286 89.668C429.747 93.9832 437.067 102.08 438.976 111.36C439.915 116.127 439.473 121.048 437.699 125.594C435.925 130.139 432.886 134.137 428.908 137.158C434.317 142.161 440.912 145.846 448.132 147.9C446.163 150.719 442.527 152.366 438.854 152.958C435.162 153.398 431.426 153.375 427.74 152.888C430.256 156.474 434.021 159.096 438.368 160.289C432.384 161.607 426.142 161.411 420.262 159.72C414.51 158.057 409.006 155.699 403.882 152.702C386.092 142.854 376.279 134.224 364.265 119.062C362.696 112.52 364.922 102.474 369.822 97.3472Z" fill="#263238"/>
<path d="M408.175 143.84C395.115 125.64 378.492 115.907 363.45 112.88Z" fill="#263238"/>
<path d="M363.45 112.88C364.14 113.143 364.852 113.349 365.578 113.494C366.952 113.866 368.934 114.434 371.318 115.304C377.523 117.604 383.357 120.728 388.646 124.584C393.936 128.431 398.757 132.832 403.019 137.704C404.624 139.594 405.925 141.184 406.764 142.228C407.182 142.819 407.654 143.374 408.175 143.886C407.823 143.252 407.416 142.647 406.959 142.077C406.18 140.917 404.94 139.351 403.372 137.437C399.217 132.419 394.43 127.907 389.12 124.004C383.767 120.109 377.821 117.019 371.488 114.84C369.578 114.192 367.629 113.653 365.651 113.228C364.928 113.056 364.192 112.939 363.45 112.88Z" fill="#455A64"/>
<path d="M423.74 159.349L423.448 159.442L422.597 159.767C421.867 160.068 420.773 160.463 419.338 160.927C415.282 162.222 411.076 163.04 406.813 163.363C400.492 163.812 394.137 163.421 387.928 162.203C380.324 160.679 372.89 158.469 365.724 155.602C358.063 152.621 350.84 149.559 344.408 146.554C338.694 143.917 333.195 140.877 327.955 137.46C324.433 135.146 321.107 132.57 318.008 129.758C316.89 128.772 316.087 127.948 315.576 127.438L314.932 126.823C314.786 126.695 314.713 126.626 314.701 126.637C314.689 126.649 314.701 126.718 314.883 126.869L315.479 127.53C316.002 128.11 316.78 128.957 317.911 129.978C320.958 132.873 324.257 135.515 327.773 137.878C332.994 141.377 338.495 144.48 344.225 147.158C350.67 150.208 357.881 153.294 365.554 156.287C372.764 159.161 380.249 161.364 387.904 162.864C394.174 164.058 400.59 164.394 406.959 163.862C411.216 163.49 415.408 162.61 419.435 161.24C420.858 160.718 421.94 160.289 422.657 159.941L423.472 159.558C423.654 159.407 423.752 159.361 423.74 159.349Z" fill="#455A64"/>
<path d="M354.841 268.586L352.64 264.48C352.798 264.399 368.071 256.928 373.944 252.219C387.782 241.129 400.502 223.416 400.636 223.219L404.648 225.829C404.113 226.583 391.43 244.25 377.069 255.757C370.746 260.791 355.485 268.273 354.841 268.586Z" fill="#455A64"/>
<path d="M366.211 255.768C366.211 255.768 345.344 264.654 345.344 266.626C345.344 268.598 348.652 272.542 351.132 272.345C353.613 272.148 360.787 268.296 362.076 266.719C363.365 265.141 365.651 261.081 368.156 259.109L366.211 255.768Z" fill="#263238"/>
<path d="M404.478 196.04L399.614 195.82C399.79 182.439 397.375 169.143 392.488 156.6C381.933 130.662 361.638 116.742 332.187 115.211C329.508 115.099 326.824 115.274 324.186 115.733L326.314 113.808C327.345 112.879 328.544 112.136 329.852 111.615C331.646 110.9 333.595 110.613 335.531 110.78C372.716 113.854 389.521 136.404 397.073 155.057C402.217 168.153 404.729 182.057 404.478 196.04Z" fill="#455A64"/>
<path d="M402.046 238.229C410.555 238.229 417.453 228.767 417.453 217.094C417.453 205.421 410.555 195.959 402.046 195.959C393.537 195.959 386.639 205.421 386.639 217.094C386.639 228.767 393.537 238.229 402.046 238.229Z" fill="#455A64"/>
<path d="M417.453 217.094C417.438 216.998 417.438 216.9 417.453 216.804C417.453 216.572 417.453 216.294 417.38 215.946C417.325 214.85 417.208 213.758 417.027 212.674C416.399 208.678 414.768 204.885 412.273 201.62C411.432 200.564 410.461 199.609 409.379 198.778C408.2 197.892 406.872 197.206 405.451 196.748C403.93 196.277 402.319 196.131 400.733 196.318C399.054 196.559 397.447 197.132 396.015 198C392.98 200.015 390.636 202.84 389.278 206.12C387.759 209.614 386.978 213.359 386.978 217.14C386.978 220.922 387.759 224.667 389.278 228.16C390.635 231.442 392.979 234.267 396.015 236.28C397.447 237.149 399.054 237.722 400.733 237.962C402.32 238.144 403.929 237.998 405.451 237.533C406.872 237.075 408.2 236.388 409.379 235.503C410.458 234.668 411.429 233.714 412.273 232.661C414.768 229.395 416.399 225.603 417.027 221.606C417.207 220.523 417.325 219.431 417.38 218.335C417.38 217.987 417.38 217.709 417.453 217.477C417.437 217.381 417.437 217.283 417.453 217.187C417.472 217.283 417.472 217.381 417.453 217.477V218.335C417.44 219.441 417.359 220.545 417.21 221.641C416.666 225.709 415.069 229.584 412.565 232.916C411.713 234.009 410.725 234.999 409.622 235.863C408.406 236.8 407.027 237.526 405.548 238.009C403.954 238.508 402.265 238.67 400.599 238.484C398.839 238.244 397.153 237.651 395.65 236.744C392.504 234.702 390.069 231.81 388.658 228.439C387.093 224.875 386.287 221.05 386.287 217.187C386.287 213.323 387.093 209.498 388.658 205.935C390.069 202.563 392.504 199.671 395.65 197.629C397.153 196.723 398.839 196.13 400.599 195.889C402.265 195.703 403.954 195.866 405.548 196.365C407.027 196.848 408.406 197.574 409.622 198.511C410.728 199.372 411.716 200.362 412.565 201.457C415.073 204.788 416.67 208.664 417.21 212.732C417.358 213.825 417.439 214.925 417.453 216.027V216.897C417.461 216.962 417.461 217.028 417.453 217.094Z" fill="#263238"/>
<path d="M404.417 229.367C409.837 229.367 414.23 223.342 414.23 215.911C414.23 208.479 409.837 202.455 404.417 202.455C398.998 202.455 394.604 208.479 394.604 215.911C394.604 223.342 398.998 229.367 404.417 229.367Z" fill="#455A64"/>
<path d="M414.23 215.911C414.157 215.911 414.23 214.89 413.878 213.092C413.471 210.571 412.428 208.183 410.838 206.132C409.757 204.725 408.257 203.662 406.533 203.081C405.576 202.787 404.564 202.696 403.566 202.814C402.514 202.964 401.507 203.324 400.611 203.87C398.703 205.138 397.227 206.913 396.367 208.974C395.406 211.179 394.914 213.545 394.92 215.934C394.908 218.323 395.4 220.69 396.367 222.894C397.227 224.955 398.703 226.73 400.611 227.998C401.507 228.544 402.514 228.904 403.566 229.054C404.564 229.172 405.576 229.081 406.533 228.787C408.257 228.206 409.757 227.143 410.838 225.736C412.428 223.685 413.471 221.297 413.878 218.776C414.182 216.978 414.157 215.957 414.23 215.969C414.247 216.212 414.247 216.456 414.23 216.7C414.229 217.406 414.18 218.111 414.085 218.811C413.762 221.413 412.754 223.896 411.154 226.026C410.04 227.529 408.47 228.671 406.655 229.297C405.631 229.629 404.543 229.74 403.469 229.622C402.329 229.453 401.24 229.058 400.271 228.462C398.249 227.154 396.683 225.3 395.772 223.138C394.769 220.854 394.252 218.404 394.252 215.928C394.252 213.453 394.769 211.002 395.772 208.719C396.683 206.557 398.249 204.703 400.271 203.394C401.236 202.8 402.322 202.405 403.457 202.234C404.535 202.117 405.627 202.228 406.655 202.559C408.47 203.186 410.04 204.327 411.154 205.83C412.754 207.961 413.762 210.443 414.085 213.046C414.18 213.746 414.229 214.451 414.23 215.157C414.247 215.408 414.247 215.66 414.23 215.911Z" fill="#263238"/>
<path d="M405.098 225.585C408.993 225.585 412.151 221.254 412.151 215.911C412.151 210.568 408.993 206.236 405.098 206.236C401.203 206.236 398.045 210.568 398.045 215.911C398.045 221.254 401.203 225.585 405.098 225.585Z" fill="#455A64"/>
<path d="M412.151 215.911C412.09 215.911 412.09 215.18 411.871 213.892C411.558 212.082 410.8 210.369 409.658 208.893C408.889 207.892 407.821 207.136 406.594 206.724C405.895 206.51 405.155 206.451 404.428 206.549C403.702 206.648 403.008 206.902 402.399 207.292C399.76 208.951 398.362 212.431 398.349 215.899C398.337 219.368 399.76 222.859 402.399 224.518C403.008 224.908 403.702 225.162 404.428 225.261C405.155 225.359 405.895 225.3 406.594 225.086C407.821 224.674 408.889 223.918 409.658 222.917C410.8 221.441 411.558 219.728 411.871 217.918C412.09 216.63 412.09 215.899 412.151 215.911C412.18 216.084 412.18 216.26 412.151 216.433C412.157 216.941 412.129 217.448 412.066 217.952C411.847 219.838 411.127 221.639 409.974 223.184C409.154 224.254 408.014 225.062 406.703 225.504C405.957 225.743 405.164 225.826 404.381 225.748C403.551 225.638 402.755 225.361 402.046 224.936C400.574 223.985 399.435 222.636 398.775 221.061C398.043 219.409 397.666 217.634 397.666 215.841C397.666 214.048 398.043 212.273 398.775 210.621C399.435 209.047 400.574 207.697 402.046 206.747C402.755 206.321 403.551 206.044 404.381 205.935C405.164 205.856 405.957 205.939 406.703 206.178C408.014 206.62 409.154 207.429 409.974 208.498C411.127 210.044 411.847 211.845 412.066 213.73C412.129 214.234 412.157 214.742 412.151 215.25C412.195 215.468 412.195 215.692 412.151 215.911Z" fill="#263238"/>
</g>
<defs>
<filter id="filter0_d_3_207" x="-4" y="0" width="616" height="588" filterUnits="userSpaceOnUse" color-interpolation-filters="sRGB">
<feFlood flood-opacity="0" result="BackgroundImageFix"/>
<feColorMatrix in="SourceAlpha" type="matrix" values="0 0 0 0 0 0 0 0 0 0 0 0 0 0 0 0 0 0 127 0" result="hardAlpha"/>
<feOffset dy="4"/>
<feGaussianBlur stdDeviation="2"/>
<feComposite in2="hardAlpha" operator="out"/>
<feColorMatrix type="matrix" values="0 0 0 0 0 0 0 0 0 0 0 0 0 0 0 0 0 0 0.25 0"/>
<feBlend mode="normal" in2="BackgroundImageFix" result="effect1_dropShadow_3_207"/>
<feBlend mode="normal" in="SourceGraphic" in2="effect1_dropShadow_3_207" result="shape"/>
</filter>
</defs>
</svg>
